<svg width="400" height="400" viewBox="0 0 400 400" xmlns="http://www.w3.org/2000/svg">
  <!-- Rainbow arcs from outer to inner -->
  <!-- Red arc -->
  <path d="M 50 350 A 150 150 0 0 1 350 350" fill="none" stroke="#E91E63" stroke-width="35" stroke-linecap="round"/>
  
  <!-- Orange arc -->
  <path d="M 65 350 A 135 135 0 0 1 335 350" fill="none" stroke="#FF9800" stroke-width="35" stroke-linecap="round"/>
  
  <!-- Yellow arc -->
  <path d="M 80 350 A 120 120 0 0 1 320 350" fill="none" stroke="#FFEB3B" stroke-width="35" stroke-linecap="round"/>
  
  <!-- Green arc -->
  <path d="M 95 350 A 105 105 0 0 1 305 350" fill="none" stroke="#4CAF50" stroke-width="35" stroke-linecap="round"/>
  
  <!-- Blue arc -->
  <path d="M 110 350 A 90 90 0 0 1 290 350" fill="none" stroke="#2196F3" stroke-width="35" stroke-linecap="round"/>
  
  <!-- Left cloud -->
  <g transform="translate(80, 320)">
    <!-- Cloud outline -->
    <ellipse cx="30" cy="20" rx="25" ry="20" fill="white" stroke="#2C5F8D" stroke-width="5"/>
    <ellipse cx="60" cy="20" rx="28" ry="22" fill="white" stroke="#2C5F8D" stroke-width="5"/>
    <ellipse cx="45" cy="10" rx="22" ry="18" fill="white" stroke="#2C5F8D" stroke-width="5"/>
    <!-- Cloud shadow -->
    <ellipse cx="45" cy="32" rx="50" ry="12" fill="#D3D3D3" opacity="0.6"/>
  </g>
  
  <!-- Right cloud -->
  <g transform="translate(240, 320)">
    <!-- Cloud outline -->
    <ellipse cx="30" cy="20" rx="28" ry="22" fill="white" stroke="#2C5F8D" stroke-width="5"/>
    <ellipse cx="65" cy="20" rx="30" ry="24" fill="white" stroke="#2C5F8D" stroke-width="5"/>
    <ellipse cx="48" cy="8" rx="25" ry="20" fill="white" stroke="#2C5F8D" stroke-width="5"/>
    <!-- Cloud shadow -->
    <ellipse cx="48" cy="35" rx="55" ry="14" fill="#D3D3D3" opacity="0.6"/>
  </g>
</svg>
